<svg xmlns="http://www.w3.org/2000/svg" viewBox="0 0 512 512" role="img" aria-labelledby="title">
  <title id="title">Phoenix OS</title>
  <rect width="512" height="512" rx="112" fill="#100c09" />
  <circle cx="256" cy="256" r="172" fill="#1c1510" stroke="#f97316" stroke-width="18" />
  <path
    d="M256 82c48 70 92 122 92 190 0 56-39 107-92 134-53-27-92-78-92-134 0-68 44-120 92-190Z"
    fill="#f97316"
  />
  <path
    d="M256 160c31 45 60 80 60 124 0 36-25 70-60 88-35-18-60-52-60-88 0-44 29-79 60-124Z"
    fill="#ffd166"
  />
  <path d="M256 236c17 24 32 43 32 66 0 19-13 37-32 47-19-10-32-28-32-47 0-23 15-42 32-66Z" fill="#fff7d6" />
</svg>
